<svg xmlns="http://www.w3.org/2000/svg" viewBox="0 0 14.93 10.97"><defs><style>.cls-1{fill:#000002;}</style></defs><title>Recurso 9</title><g id="Capa_2" data-name="Capa 2"><g id="Capa_1-2" data-name="Capa 1"><path class="cls-1" d="M13.56,0H1.37A1.38,1.38,0,0,0,0,1.37V9.6A1.37,1.37,0,0,0,1.37,11H13.56A1.37,1.37,0,0,0,14.93,9.6V1.37A1.38,1.38,0,0,0,13.56,0ZM1.45,1.88a.8.8,0,0,1,.36-.49.63.63,0,0,1,.36-.11H12.86a.49.49,0,0,1,.3.1.72.72,0,0,1,.36.53.37.37,0,0,1,0,.09l0,.13s0,0,0,.05l-.08,0-1.08.63L7.92,5.42a1,1,0,0,1-.52.14,1.07,1.07,0,0,1-.6-.18l-5-2.95A.65.65,0,0,1,1.46,2a.19.19,0,0,1,0-.08ZM13.55,5c0,1.2,0,2.4,0,3.55a1.15,1.15,0,0,1-.29.88,1.22,1.22,0,0,1-.9.31H5.81c-1,0-2,0-3,0h0a1.41,1.41,0,0,1-1.07-.34,1.35,1.35,0,0,1-.31-1c0-1,.05-2,0-3.3V5a1.05,1.05,0,0,1,.41-1c.41-.25.87,0,1.12.18l2,1.14c.73.41,1.47.82,2.19,1.25a.57.57,0,0,0,.74,0c.79-.47,1.6-.92,2.38-1.36L12.1,4.14A1,1,0,0,1,13.16,4,1,1,0,0,1,13.55,5Z"/></g></g></svg>