<svg xmlns="http://www.w3.org/2000/svg" viewBox="0 0 9.29 10.75"><defs><style>.cls-1{fill:#000002;}</style></defs><title>Recurso 11</title><g id="Capa_2" data-name="Capa 2"><g id="Capa_1-2" data-name="Capa 1"><path class="cls-1" d="M9.29,3.64A4.12,4.12,0,0,1,9.1,5a2.61,2.61,0,0,1-.46.93,2.54,2.54,0,0,1-.71.58,3.55,3.55,0,0,1-.83.34A5.47,5.47,0,0,1,6.19,7a1.54,1.54,0,0,1,.46,1.24v1.86h0v.05a.49.49,0,0,0,.15.35,6.54,6.54,0,0,1-3.65,0,.49.49,0,0,0,.15-.35V9.61c0-.31,0-.57,0-.79l-.2,0a1.84,1.84,0,0,1-.49,0A3.42,3.42,0,0,1,2,8.83a1.39,1.39,0,0,1-.58-.27A1.13,1.13,0,0,1,1,8L.92,7.81a2.92,2.92,0,0,0-.27-.44A1.08,1.08,0,0,0,.26,7L.2,7a.52.52,0,0,1-.11-.1A.66.66,0,0,1,0,6.76s0-.08,0-.1a.62.62,0,0,1,.25,0l.17,0a1.15,1.15,0,0,1,.44.21,1.43,1.43,0,0,1,.42.46,1.46,1.46,0,0,0,.5.54,1,1,0,0,0,.57.2A2.34,2.34,0,0,0,2.91,8a1.7,1.7,0,0,0,.4-.13A1.33,1.33,0,0,1,3.74,7a5.34,5.34,0,0,1-.9-.17A3.55,3.55,0,0,1,2,6.47a2.41,2.41,0,0,1-.71-.58A3.23,3.23,0,0,1,.84,5,4.48,4.48,0,0,1,.66,3.64a2.6,2.6,0,0,1,.69-1.82A2.41,2.41,0,0,1,1.42,0a1.2,1.2,0,0,1,.75.13,5.79,5.79,0,0,1,.74.33l.37.24a6.32,6.32,0,0,1,3.38,0L7,.51A4.71,4.71,0,0,1,7.81.12,1.15,1.15,0,0,1,8.52,0a2.36,2.36,0,0,1,.07,1.8A2.56,2.56,0,0,1,9.29,3.64Z"/></g></g></svg>