<svg xmlns="http://www.w3.org/2000/svg" viewBox="0 0 10.97 10.97"><defs><style>.cls-1{fill:#000002;}</style></defs><title>Recurso 8</title><g id="Capa_2" data-name="Capa 2"><g id="Capa_1-2" data-name="Capa 1"><path class="cls-1" d="M8,0H3A3,3,0,0,0,0,3V8a3,3,0,0,0,3,3H8a3,3,0,0,0,3-3V3A3,3,0,0,0,8,0ZM10,8A2.05,2.05,0,0,1,8,10H3A2.06,2.06,0,0,1,1,8V3A2.07,2.07,0,0,1,3,1H8A2.06,2.06,0,0,1,10,3V8Z"/><path class="cls-1" d="M5.49,2.66A2.83,2.83,0,1,0,8.31,5.49,2.83,2.83,0,0,0,5.49,2.66Zm0,4.68A1.86,1.86,0,1,1,7.34,5.49,1.85,1.85,0,0,1,5.49,7.34Z"/><path class="cls-1" d="M8.43,1.83a.73.73,0,0,0-.5.21.75.75,0,0,0-.21.51.71.71,0,0,0,.21.5.71.71,0,0,0,1,0,.71.71,0,0,0,.21-.5A.75.75,0,0,0,8.94,2,.74.74,0,0,0,8.43,1.83Z"/></g></g></svg>