<svg xmlns="http://www.w3.org/2000/svg" viewBox="0 0 11 10.97"><defs><style>.cls-1{fill:#000002;}</style></defs><title>Recurso 13</title><g id="Capa_2" data-name="Capa 2"><g id="Capa_1-2" data-name="Capa 1"><path class="cls-1" d="M2.56,3.53H.35a.18.18,0,0,0-.18.17v7.1A.18.18,0,0,0,.35,11H2.56a.18.18,0,0,0,.18-.17V3.7A.18.18,0,0,0,2.56,3.53Z"/><path class="cls-1" d="M1.46,0A1.46,1.46,0,1,0,2.91,1.46,1.46,1.46,0,0,0,1.46,0Z"/><path class="cls-1" d="M8.18,3.35a2.58,2.58,0,0,0-1.94.81V3.7a.18.18,0,0,0-.18-.17H3.94a.18.18,0,0,0-.17.17v7.1a.18.18,0,0,0,.17.17H6.15a.17.17,0,0,0,.17-.17V7.29c0-1.19.33-1.65,1.15-1.65s1,.74,1,1.71V10.8a.18.18,0,0,0,.18.17h2.2A.18.18,0,0,0,11,10.8V6.91C11,5.15,10.66,3.35,8.18,3.35Z"/></g></g></svg>