<svg xmlns="http://www.w3.org/2000/svg" viewBox="0 0 46.23 35.23"><title>LogoCompress</title><g id="Capa_2" data-name="Capa 2"><g id="Capa_1-2" data-name="Capa 1"><path d="M44.43,31.62a1.81,1.81,0,1,0,1.8,1.8A1.81,1.81,0,0,0,44.43,31.62Z"/><path d="M3.68,31.14V.56A.56.56,0,0,0,3.12,0H.56A.56.56,0,0,0,0,.56V34.67a.56.56,0,0,0,.56.56H12.14a.56.56,0,0,0,.56-.56V32.11a.56.56,0,0,0-.56-.56H3.68Z"/><path d="M31.55,3.68V15.77H14.08a.56.56,0,0,0-.56.56V18.9a.56.56,0,0,0,.56.56H31.55V31.55H23.09a.56.56,0,0,0-.56.56v2.56a.56.56,0,0,0,.56.56H34.67a.56.56,0,0,0,.56-.56V.56A.56.56,0,0,0,34.67,0H23.09a.56.56,0,0,0-.56.56V3.13a.56.56,0,0,0,.56.55h8.46Z"/></g></g></svg>