<svg xmlns="http://www.w3.org/2000/svg" viewBox="0 0 10.77 10.75"><defs><style>.cls-1{fill:#000002;}</style></defs><title>Recurso 10</title><g id="Capa_2" data-name="Capa 2"><g id="Capa_1-2" data-name="Capa 1"><path class="cls-1" d="M10.53,8.5,8.87,6.84a.88.88,0,0,0-1.23,0L6.8,7.7l-.16-.1a8.4,8.4,0,0,1-2-1.45,8.79,8.79,0,0,1-1.46-2L3.07,4l.57-.57.27-.27a.86.86,0,0,0,0-1.22L2.27.24a.87.87,0,0,0-1.22,0L.58.74h0a2.38,2.38,0,0,0-.38.68A3.06,3.06,0,0,0,0,2.12C-.19,3.94.65,5.61,2.9,7.86,6,11,8.54,10.75,8.65,10.74a2.81,2.81,0,0,0,.69-.18,2.38,2.38,0,0,0,.68-.38h0l.48-.47A.87.87,0,0,0,10.53,8.5Z"/></g></g></svg>